<svg width="195" height="48" viewBox="0 0 195 48" fill="none" xmlns="http://www.w3.org/2000/svg">
<path d="M23.4228 47.07C36.3588 47.07 46.8456 36.5331 46.8456 23.535C46.8456 10.537 36.3588 0 23.4228 0C10.4867 0 0 10.537 0 23.535C0 36.5331 10.4867 47.07 23.4228 47.07Z" fill="url(#paint0_linear)"/>
<path d="M29.9436 22.791C28.1353 22.791 26.4693 21.9755 25.3445 20.5591C24.96 20.0727 25.0455 19.3573 25.5296 18.9711C26.0137 18.5848 26.7256 18.6706 27.1101 19.157C27.7935 20.0298 28.833 20.5305 29.9436 20.5305C31.9228 20.5305 33.546 18.9138 33.546 16.9108C33.546 14.9079 31.937 13.2912 29.9436 13.2912C27.7793 13.2912 25.9995 15.4515 24.1199 17.7407C22.0838 20.2158 19.9765 22.7767 17.0148 22.7767C13.7826 22.7767 11.1627 20.1442 11.1627 16.8965C11.1627 13.6488 13.7826 11.0164 17.0148 11.0164C18.8231 11.0164 20.4891 11.8319 21.6139 13.2483C21.9984 13.7347 21.9129 14.45 21.4288 14.8363C20.9447 15.2226 20.2328 15.1368 19.8483 14.6503C19.1648 13.7776 18.1254 13.2769 17.0148 13.2769C15.0356 13.2769 13.4124 14.8936 13.4124 16.8965C13.4124 18.8995 15.0214 20.5162 17.0148 20.5162C18.9228 20.5162 20.603 18.4703 22.3971 16.2956C24.5329 13.7061 26.7399 11.0164 29.9578 11.0164C33.19 11.0164 35.81 13.6488 35.81 16.8965C35.81 20.1442 33.1758 22.791 29.9436 22.791Z" fill="white"/>
<path d="M25.2169 41.4045C24.5904 41.4045 24.092 40.9037 24.092 40.2742V30.4739C24.092 27.2262 26.712 24.5938 29.9442 24.5938C33.1764 24.5938 35.7963 27.2262 35.7963 30.4739V32.62C35.7963 33.2495 35.298 33.7502 34.6714 33.7502C34.0449 33.7502 33.5466 33.2495 33.5466 32.62V30.4739C33.5466 28.4853 31.9376 26.8543 29.9442 26.8543C27.965 26.8543 26.3418 28.4709 26.3418 30.4739V40.2742C26.3418 40.9037 25.8434 41.4045 25.2169 41.4045Z" fill="white"/>
<path d="M21.6287 38.0423C21.0022 38.0423 20.5039 37.5416 20.5039 36.9121V30.4739C20.5039 28.4853 18.8949 26.8543 16.9015 26.8543C14.9223 26.8543 13.299 28.4709 13.299 30.4739V32.62C13.299 33.2495 12.8007 33.7502 12.1742 33.7502C11.5477 33.7502 11.0493 33.2495 11.0493 32.62V30.4739C11.0493 27.2262 13.6693 24.5938 16.9015 24.5938C20.1337 24.5938 22.7536 27.2262 22.7536 30.4739V36.9121C22.7536 37.5416 22.241 38.0423 21.6287 38.0423Z" fill="white"/>
<path d="M128.334 25.0087L128.362 34.5371L124.632 34.5514V32.4912C123.692 33.9505 121.855 34.7803 119.335 34.7947C115.476 34.809 113.042 32.6915 113.027 29.7443C113.013 26.9258 114.907 24.6939 120.019 24.6796L124.376 24.6653V24.4078C124.361 22.09 122.98 20.7309 120.161 20.7452C118.78 20.7452 117.37 21.0885 116.217 21.6894C115.533 22.0471 114.693 21.7753 114.323 21.1028L113.497 19.572C115.334 18.1413 118.039 17.4259 120.83 17.4546C124.974 17.4689 128.32 20.8453 128.334 25.0087ZM124.39 27.3407V27.2835L120.318 27.2978C117.626 27.3121 116.914 28.3279 116.914 29.5583C116.914 30.989 118.125 31.9046 120.147 31.8903C122.069 31.9046 124.39 29.916 124.39 27.3407Z" fill="white"/>
<path d="M131.851 12.4185C132.292 12.4185 132.663 12.7761 132.663 13.234V33.1779H140.124C140.522 33.1779 140.85 33.507 140.85 33.9076C140.85 34.3082 140.522 34.6372 140.124 34.6372H131.039V13.2196C131.054 12.7761 131.41 12.4185 131.851 12.4185Z" fill="white"/>
<path d="M195 26.1103C195 31.0891 191.497 34.5228 186.855 34.5228C183.951 34.5228 181.487 33.0921 180.163 30.617V39.7592C180.163 40.2027 179.807 40.5461 179.38 40.5461C178.939 40.5461 178.597 40.1884 178.597 39.7592V18.5848C178.597 18.1699 178.939 17.8265 179.352 17.8265C179.764 17.8265 180.106 18.1699 180.106 18.5848V21.7323C181.402 19.2 183.894 17.6978 186.87 17.6978C191.483 17.6978 195 21.1601 195 26.1103ZM193.419 26.1103C193.419 21.9469 190.543 19.1285 186.756 19.1285C182.968 19.1285 180.12 21.9469 180.12 26.1103C180.12 30.2736 182.968 33.0921 186.756 33.0921C190.543 33.0921 193.419 30.2593 193.419 26.1103Z" fill="white"/>
<path d="M62.2235 30.5598V16.496H65.9967V12.3756H62.2235H58.1227V16.496V30.5026V34.623H62.2235H68.9157V30.5598H62.2235Z" fill="white"/>
<path d="M71.8631 21.4033C72.2191 20.6021 72.4184 19.7007 72.4184 18.7708C72.4184 15.4802 69.9551 12.7619 66.7941 12.3756C66.5378 12.3469 66.2815 12.3326 66.011 12.3326C62.4655 12.3326 65.9825 16.5103 65.9825 16.5103C65.9967 16.5103 65.9967 16.5103 66.011 16.5103C67.2497 16.5103 68.2607 17.5261 68.2607 18.7708C68.2607 20.0155 67.264 21.017 66.0394 21.0313L68.9726 24.794C70.5247 24.8227 71.7777 26.096 71.7777 27.6697C71.7777 29.2578 70.4962 30.5598 68.9014 30.5598C68.7021 30.5598 64.4589 30.5455 64.4732 30.5598C65.5269 32.949 66.1106 34.623 68.9014 34.623C72.7174 34.623 75.8073 31.5183 75.8073 27.6841C75.8215 24.8942 74.2125 22.5049 71.8631 21.4033Z" fill="white"/>
<path d="M68.9726 21.0314H61.3406V24.7941H68.9726V21.0314Z" fill="white"/>
<path d="M106.976 27.7127C106.876 29.6155 105.894 30.6742 104.199 30.6742C102.348 30.6742 101.266 29.4152 101.266 27.2406V21.6322H105.467C106.25 21.6322 106.89 20.9884 106.89 20.2015V17.9696H101.266V12.3184H97.1369V27.7127C97.1369 31.4182 99.1161 34.6373 104.128 34.6373C108.969 34.6373 111.062 31.3896 111.062 27.7556V27.727L106.976 27.7127Z" fill="white"/>
<path d="M94.9441 26.0101C94.9441 20.645 91.2563 17.1684 86.2442 17.2542C81.517 17.3401 77.6725 21.2316 77.701 25.9815C77.7294 30.989 81.3888 34.6086 87.0131 34.6086C89.9178 34.6086 92.2815 33.6501 93.805 31.8474L92.6232 30.4739C92.1533 29.9303 91.3417 29.8015 90.7294 30.2021C89.7185 30.8888 88.5224 31.2322 87.0986 31.2322C84.1654 31.2322 82.115 29.6441 81.6309 27.1833H94.8444V27.169H94.8587C94.9156 26.8113 94.9441 26.3249 94.9441 26.0101ZM86.4151 20.4304C88.6363 20.4304 90.3308 21.6751 90.9573 23.5636H81.8587C82.5279 21.6465 84.2223 20.4304 86.4151 20.4304Z" fill="white"/>
<path d="M169.071 34.3511C166.522 34.3511 164.159 33.1923 162.593 31.1893C162.35 30.8745 162.407 30.431 162.706 30.1878C163.02 29.9446 163.461 30.0018 163.703 30.3023C165.013 31.9619 166.964 32.9204 169.071 32.9204C172.844 32.9204 175.906 29.8444 175.906 26.0531C175.906 22.2617 172.844 19.1857 169.071 19.1857C165.113 19.1857 161.966 23.0057 158.933 26.6969C155.829 30.4596 152.625 34.3511 148.411 34.3511C143.854 34.3511 140.152 30.6313 140.152 26.0531C140.152 21.4748 143.854 17.755 148.411 17.755C150.959 17.755 153.323 18.8996 154.889 20.9169C155.131 21.2316 155.074 21.6751 154.775 21.9183C154.462 22.1616 154.021 22.1043 153.779 21.8039C152.469 20.1443 150.518 19.1857 148.411 19.1857C144.637 19.1857 141.576 22.2617 141.576 26.0531C141.576 29.8444 144.637 32.9204 148.411 32.9204C151.97 32.9204 154.818 29.4581 157.837 25.7812C161.083 21.8325 164.444 17.755 169.071 17.755C173.628 17.755 177.33 21.4748 177.33 26.0531C177.33 30.6313 173.613 34.3511 169.071 34.3511Z" fill="white"/>
<defs>
<linearGradient id="paint0_linear" x1="0.0195351" y1="43.8649" x2="46.2849" y2="4.05982" gradientUnits="userSpaceOnUse">
<stop offset="0.1352" stop-color="#00D4FF"/>
<stop offset="1" stop-color="#1B66E4"/>
</linearGradient>
</defs>
</svg>
