<svg width="487" height="412" viewBox="0 0 487 412" fill="none" xmlns="http://www.w3.org/2000/svg">
<path d="M396.107 24.8945L412.807 30.7832V38.9863L387.582 28.293V21.3789L412.807 10.6855V18.8887L396.107 24.8945ZM422.445 46.6621H416.146L431.85 0.34375H438.148L422.445 46.6621ZM459.506 24.8066L442.484 18.8594V10.7148L468.002 21.4082V28.293L442.484 39.0156V30.8418L459.506 24.8066Z" fill="#F2F2F2"/>
<path d="M17.168 160.547C10.1367 158.574 6.62109 154.033 6.62109 146.924V141.094C6.62109 136.973 4.88281 134.912 1.40625 134.912V128.848C4.80469 128.848 6.54297 126.904 6.62109 123.018V116.807C6.62109 113.193 7.5 110.273 9.25781 108.047C11.0156 105.82 13.6523 104.209 17.168 103.213L18.8086 107.93C17.3242 108.477 16.2012 109.434 15.4395 110.801C14.6777 112.148 14.2773 114.023 14.2383 116.426V122.578C14.2383 126.992 12.4902 130.088 8.99414 131.865C12.4902 133.662 14.2383 136.777 14.2383 141.211V147.422C14.3359 151.992 15.8594 154.785 18.8086 155.801L17.168 160.547ZM23.4961 145.84C23.4961 144.492 23.9453 143.398 24.8438 142.559C25.7617 141.719 26.9043 141.299 28.2715 141.299C29.6582 141.299 30.8008 141.719 31.6992 142.559C32.6172 143.398 33.0762 144.492 33.0762 145.84C33.0762 147.168 32.627 148.252 31.7285 149.092C30.8301 149.912 29.6777 150.322 28.2715 150.322C26.8848 150.322 25.7422 149.912 24.8438 149.092C23.9453 148.252 23.4961 147.168 23.4961 145.84ZM40.957 145.84C40.957 144.492 41.4062 143.398 42.3047 142.559C43.2227 141.719 44.3652 141.299 45.7324 141.299C47.1191 141.299 48.2617 141.719 49.1602 142.559C50.0781 143.398 50.5371 144.492 50.5371 145.84C50.5371 147.168 50.0879 148.252 49.1895 149.092C48.291 149.912 47.1387 150.322 45.7324 150.322C44.3457 150.322 43.2031 149.912 42.3047 149.092C41.4062 148.252 40.957 147.168 40.957 145.84ZM58.418 145.84C58.418 144.492 58.8672 143.398 59.7656 142.559C60.6836 141.719 61.8262 141.299 63.1934 141.299C64.5801 141.299 65.7227 141.719 66.6211 142.559C67.5391 143.398 67.998 144.492 67.998 145.84C67.998 147.168 67.5488 148.252 66.6504 149.092C65.752 149.912 64.5996 150.322 63.1934 150.322C61.8066 150.322 60.6641 149.912 59.7656 149.092C58.8672 148.252 58.418 147.168 58.418 145.84ZM73.1836 155.801C76.1523 154.746 77.6758 151.914 77.7539 147.305V141.094C77.7539 136.68 79.541 133.613 83.1152 131.895C79.541 130.176 77.7539 127.061 77.7539 122.549V116.426C77.6758 111.875 76.1523 109.043 73.1836 107.93L74.8242 103.213C78.3203 104.189 80.9473 105.791 82.7051 108.018C84.4629 110.225 85.3516 113.125 85.3711 116.719V123.018C85.4492 126.904 87.1875 128.848 90.5859 128.848V134.912C87.1094 134.912 85.3711 136.953 85.3711 141.035V147.393C85.2148 154.229 81.6992 158.613 74.8242 160.547L73.1836 155.801Z" fill="#F2F2F2"/>
<path d="M192.578 112.238L206.934 36.3594H228.833L205.176 143H183.057L165.698 71.6621L148.34 143H126.221L102.563 36.3594H124.463L138.892 112.092L156.47 36.3594H175.073L192.578 112.238ZM260.034 72.3945C265.649 65.6562 272.705 62.2871 281.201 62.2871C298.389 62.2871 307.104 72.2725 307.349 92.2432V143H286.182V92.8291C286.182 88.2881 285.205 84.9434 283.252 82.7949C281.299 80.5977 278.052 79.499 273.511 79.499C267.31 79.499 262.817 81.8916 260.034 86.6768V143H238.867V30.5H260.034V72.3945ZM320.02 102.644C320.02 94.7822 321.533 87.7754 324.561 81.623C327.588 75.4707 331.934 70.71 337.598 67.3408C343.311 63.9717 349.927 62.2871 357.446 62.2871C368.14 62.2871 376.855 65.5586 383.594 72.1016C390.381 78.6445 394.165 87.5312 394.946 98.7617L395.093 104.182C395.093 116.34 391.699 126.105 384.912 133.479C378.125 140.803 369.019 144.465 357.593 144.465C346.167 144.465 337.036 140.803 330.2 133.479C323.413 126.154 320.02 116.193 320.02 103.596V102.644ZM341.187 104.182C341.187 111.701 342.603 117.463 345.435 121.467C348.267 125.422 352.319 127.399 357.593 127.399C362.72 127.399 366.724 125.446 369.604 121.54C372.485 117.585 373.926 111.286 373.926 102.644C373.926 95.2705 372.485 89.5576 369.604 85.5049C366.724 81.4521 362.671 79.4258 357.446 79.4258C352.271 79.4258 348.267 81.4521 345.435 85.5049C342.603 89.5088 341.187 95.7344 341.187 104.182ZM177.051 219.216L187.451 168.752H207.886L187.671 248H169.946L154.932 198.122L139.917 248H122.266L102.051 168.752H122.485L132.812 219.143L147.314 168.752H162.622L177.051 219.216ZM254.907 249.465C243.286 249.465 233.813 245.9 226.489 238.771C219.214 231.643 215.576 222.146 215.576 210.28V208.229C215.576 200.271 217.114 193.166 220.19 186.916C223.267 180.617 227.612 175.783 233.228 172.414C238.892 168.996 245.337 167.287 252.563 167.287C263.403 167.287 271.924 170.705 278.125 177.541C284.375 184.377 287.5 194.069 287.5 206.618V215.261H237.036C237.72 220.437 239.771 224.587 243.188 227.712C246.655 230.837 251.025 232.399 256.299 232.399C264.453 232.399 270.825 229.445 275.415 223.537L285.815 235.183C282.642 239.675 278.345 243.19 272.925 245.729C267.505 248.22 261.499 249.465 254.907 249.465ZM252.49 184.426C248.291 184.426 244.873 185.842 242.236 188.674C239.648 191.506 237.988 195.559 237.256 200.832H266.699V199.147C266.602 194.46 265.332 190.847 262.891 188.308C260.449 185.72 256.982 184.426 252.49 184.426ZM154.053 353C153.076 351.096 152.368 348.728 151.929 345.896C146.802 351.608 140.137 354.465 131.934 354.465C124.17 354.465 117.725 352.219 112.598 347.727C107.52 343.234 104.98 337.57 104.98 330.734C104.98 322.336 108.081 315.891 114.282 311.398C120.532 306.906 129.541 304.636 141.309 304.587H151.05V300.046C151.05 296.384 150.098 293.454 148.193 291.257C146.338 289.06 143.384 287.961 139.331 287.961C135.767 287.961 132.959 288.815 130.908 290.524C128.906 292.233 127.905 294.577 127.905 297.556H106.738C106.738 292.966 108.154 288.718 110.986 284.812C113.818 280.905 117.822 277.854 122.998 275.656C128.174 273.41 133.984 272.287 140.43 272.287C150.195 272.287 157.935 274.753 163.647 279.685C169.409 284.567 172.29 291.452 172.29 300.339V334.689C172.339 342.209 173.389 347.897 175.439 351.755V353H154.053ZM136.548 338.278C139.673 338.278 142.554 337.595 145.19 336.228C147.827 334.812 149.78 332.932 151.05 330.588V316.965H143.14C132.544 316.965 126.904 320.627 126.221 327.951L126.147 329.196C126.147 331.833 127.075 334.006 128.931 335.715C130.786 337.424 133.325 338.278 136.548 338.278ZM233.081 293.601C230.2 293.21 227.661 293.015 225.464 293.015C217.456 293.015 212.207 295.725 209.717 301.145V353H188.55V273.752H208.545L209.131 283.2C213.379 275.925 219.263 272.287 226.782 272.287C229.126 272.287 231.323 272.604 233.374 273.239L233.081 293.601ZM278.345 354.465C266.724 354.465 257.251 350.9 249.927 343.771C242.651 336.643 239.014 327.146 239.014 315.28V313.229C239.014 305.271 240.552 298.166 243.628 291.916C246.704 285.617 251.05 280.783 256.665 277.414C262.329 273.996 268.774 272.287 276.001 272.287C286.841 272.287 295.361 275.705 301.562 282.541C307.812 289.377 310.938 299.069 310.938 311.618V320.261H260.474C261.157 325.437 263.208 329.587 266.626 332.712C270.093 335.837 274.463 337.399 279.736 337.399C287.891 337.399 294.263 334.445 298.853 328.537L309.253 340.183C306.079 344.675 301.782 348.19 296.362 350.729C290.942 353.22 284.937 354.465 278.345 354.465ZM275.928 289.426C271.729 289.426 268.311 290.842 265.674 293.674C263.086 296.506 261.426 300.559 260.693 305.832H290.137V304.147C290.039 299.46 288.77 295.847 286.328 293.308C283.887 290.72 280.42 289.426 275.928 289.426ZM324.121 342.6C324.121 339.23 325.244 336.496 327.49 334.396C329.785 332.297 332.642 331.247 336.06 331.247C339.526 331.247 342.383 332.297 344.629 334.396C346.924 336.496 348.071 339.23 348.071 342.6C348.071 345.92 346.948 348.63 344.702 350.729C342.456 352.78 339.575 353.806 336.06 353.806C332.593 353.806 329.736 352.78 327.49 350.729C325.244 348.63 324.121 345.92 324.121 342.6ZM367.773 342.6C367.773 339.23 368.896 336.496 371.143 334.396C373.438 332.297 376.294 331.247 379.712 331.247C383.179 331.247 386.035 332.297 388.281 334.396C390.576 336.496 391.724 339.23 391.724 342.6C391.724 345.92 390.601 348.63 388.354 350.729C386.108 352.78 383.228 353.806 379.712 353.806C376.245 353.806 373.389 352.78 371.143 350.729C368.896 348.63 367.773 345.92 367.773 342.6ZM411.426 342.6C411.426 339.23 412.549 336.496 414.795 334.396C417.09 332.297 419.946 331.247 423.364 331.247C426.831 331.247 429.688 332.297 431.934 334.396C434.229 336.496 435.376 339.23 435.376 342.6C435.376 345.92 434.253 348.63 432.007 350.729C429.761 352.78 426.88 353.806 423.364 353.806C419.897 353.806 417.041 352.78 414.795 350.729C412.549 348.63 411.426 345.92 411.426 342.6Z" fill="#1B66E4"/>
<path d="M359.863 273.527C359.642 276.587 358.509 278.996 356.465 280.754C354.434 282.512 351.751 283.391 348.418 283.391C344.772 283.391 341.901 282.167 339.805 279.719C337.721 277.258 336.68 273.885 336.68 269.602V267.863C336.68 265.129 337.161 262.72 338.125 260.637C339.089 258.553 340.462 256.958 342.246 255.852C344.043 254.732 346.126 254.172 348.496 254.172C351.777 254.172 354.421 255.051 356.426 256.809C358.431 258.566 359.59 261.034 359.902 264.211H354.043C353.9 262.375 353.385 261.047 352.5 260.227C351.628 259.393 350.293 258.977 348.496 258.977C346.543 258.977 345.078 259.68 344.102 261.086C343.138 262.479 342.643 264.647 342.617 267.59V269.738C342.617 272.811 343.079 275.057 344.004 276.477C344.941 277.896 346.413 278.605 348.418 278.605C350.228 278.605 351.576 278.195 352.461 277.375C353.359 276.542 353.874 275.259 354.004 273.527H359.863ZM378.457 275.539C378.457 274.432 378.066 273.586 377.285 273C376.504 272.401 375.098 271.776 373.066 271.125C371.035 270.461 369.427 269.81 368.242 269.172C365.013 267.427 363.398 265.077 363.398 262.121C363.398 260.585 363.828 259.217 364.688 258.02C365.56 256.809 366.803 255.865 368.418 255.188C370.046 254.51 371.868 254.172 373.887 254.172C375.918 254.172 377.728 254.543 379.316 255.285C380.905 256.014 382.135 257.049 383.008 258.391C383.893 259.732 384.336 261.255 384.336 262.961H378.477C378.477 261.659 378.066 260.65 377.246 259.934C376.426 259.204 375.273 258.84 373.789 258.84C372.357 258.84 371.243 259.146 370.449 259.758C369.655 260.357 369.258 261.151 369.258 262.141C369.258 263.065 369.72 263.84 370.645 264.465C371.582 265.09 372.956 265.676 374.766 266.223C378.099 267.225 380.527 268.469 382.051 269.953C383.574 271.438 384.336 273.286 384.336 275.5C384.336 277.961 383.405 279.895 381.543 281.301C379.681 282.694 377.174 283.391 374.023 283.391C371.836 283.391 369.844 282.993 368.047 282.199C366.25 281.392 364.876 280.292 363.926 278.898C362.988 277.505 362.52 275.891 362.52 274.055H368.398C368.398 277.193 370.273 278.762 374.023 278.762C375.417 278.762 376.504 278.482 377.285 277.922C378.066 277.349 378.457 276.555 378.457 275.539ZM403.066 275.539C403.066 274.432 402.676 273.586 401.895 273C401.113 272.401 399.707 271.776 397.676 271.125C395.645 270.461 394.036 269.81 392.852 269.172C389.622 267.427 388.008 265.077 388.008 262.121C388.008 260.585 388.438 259.217 389.297 258.02C390.169 256.809 391.413 255.865 393.027 255.188C394.655 254.51 396.478 254.172 398.496 254.172C400.527 254.172 402.337 254.543 403.926 255.285C405.514 256.014 406.745 257.049 407.617 258.391C408.503 259.732 408.945 261.255 408.945 262.961H403.086C403.086 261.659 402.676 260.65 401.855 259.934C401.035 259.204 399.883 258.84 398.398 258.84C396.966 258.84 395.853 259.146 395.059 259.758C394.264 260.357 393.867 261.151 393.867 262.141C393.867 263.065 394.329 263.84 395.254 264.465C396.191 265.09 397.565 265.676 399.375 266.223C402.708 267.225 405.137 268.469 406.66 269.953C408.184 271.438 408.945 273.286 408.945 275.5C408.945 277.961 408.014 279.895 406.152 281.301C404.29 282.694 401.784 283.391 398.633 283.391C396.445 283.391 394.453 282.993 392.656 282.199C390.859 281.392 389.486 280.292 388.535 278.898C387.598 277.505 387.129 275.891 387.129 274.055H393.008C393.008 277.193 394.883 278.762 398.633 278.762C400.026 278.762 401.113 278.482 401.895 277.922C402.676 277.349 403.066 276.555 403.066 275.539Z" fill="#F2F2F2"/>
<path d="M86.8633 401.527C86.6419 404.587 85.5091 406.996 83.4648 408.754C81.4336 410.512 78.7513 411.391 75.418 411.391C71.7721 411.391 68.901 410.167 66.8047 407.719C64.7214 405.258 63.6797 401.885 63.6797 397.602V395.863C63.6797 393.129 64.1615 390.72 65.125 388.637C66.0885 386.553 67.4622 384.958 69.2461 383.852C71.043 382.732 73.1263 382.172 75.4961 382.172C78.7773 382.172 81.4206 383.051 83.4258 384.809C85.431 386.566 86.5898 389.034 86.9023 392.211H81.043C80.8997 390.375 80.3854 389.047 79.5 388.227C78.6276 387.393 77.293 386.977 75.4961 386.977C73.543 386.977 72.0781 387.68 71.1016 389.086C70.138 390.479 69.6432 392.647 69.6172 395.59V397.738C69.6172 400.811 70.0794 403.057 71.0039 404.477C71.9414 405.896 73.4128 406.605 75.418 406.605C77.2279 406.605 78.5755 406.195 79.4609 405.375C80.3594 404.542 80.8737 403.259 81.0039 401.527H86.8633ZM101.727 395.082H108.777V400.18H101.727V408.148H96.3555V400.18H89.2852V395.082H96.3555V387.445H101.727V395.082ZM123.562 395.082H130.613V400.18H123.562V408.148H118.191V400.18H111.121V395.082H118.191V387.445H123.562V395.082Z" fill="#F2F2F2"/>
</svg>
